<?xml version="1.0" encoding="UTF-8" standalone="no"?><!DOCTYPE svg PUBLIC "-//W3C//DTD SVG 1.1//EN" "http://www.w3.org/Graphics/SVG/1.1/DTD/svg11.dtd"><svg width="100%" height="100%" viewBox="0 0 14 18" version="1.1" xmlns="http://www.w3.org/2000/svg" xmlns:xlink="http://www.w3.org/1999/xlink" xml:space="preserve" xmlns:serif="http://www.serif.com/" style="fill-rule:evenodd;clip-rule:evenodd;stroke-linejoin:round;stroke-miterlimit:2;"><path d="M13.616,7.512c-0.107,-0.82 -0.467,-1.063 -1.323,-1.247l-5.534,0c0.407,-0.713 0.626,-2.728 0.616,-3.551c-0.016,-1.363 -0.553,-2.714 -1.947,-2.714l-0.358,0c0,0 -0.382,0.01 -0.669,0.224c-0.218,0.163 -0.351,0.511 -0.391,0.672c-0.163,0.653 0,1.606 0,1.818c0,1.388 -0.876,2.041 -1.919,3.061c-0.703,0.686 -1.303,0.935 -2.091,1.32l0,9.673c1.206,0.393 2.737,0.307 5.07,0.307l4.791,0c1.325,0 1.938,-1.186 1.425,-2.453c0.782,-0.208 1.007,-0.922 1.007,-1.751c0,-0.234 -0.047,-0.458 -0.13,-0.664c1.318,-0.351 1.328,-1.941 0.413,-2.94c0.333,-0.308 1.181,-0.668 1.04,-1.755Z" style="fill:#0093fe;fill-rule:nonzero;"/></svg>